# File produced by Open Asset Import Library (http://www.assimp.sf.net)
# (assimp v3.1.243586452)

mtllib PBR%20-%20Metallic%20Roughness.mtl

# vertex positions
v -0.045274 -1.109366 0.045274
v -0.048831 -1.107893 0.045274
v -0.048831 -1.107893 -0.045274
v -0.045274 -1.109366 -0.045274
v -0.050304 -1.104336 0.045274
v -0.050304 -1.104336 -0.045274
v -0.045274 -1.104336 0.050304
v -0.045274 -1.107893 0.048831
v 0.045274 -1.107893 0.048831
v 0.045274 -1.104336 0.050304
v 0.045274 -1.109366 0.045274
v -0.048831 -1.104336 0.048831
v -0.048831 1.104336 0.048831
v -0.050304 1.104336 0.045274
v -0.045274 1.104336 0.050304
v 0.050304 -1.104336 0.045274
v 0.048831 -1.107893 0.045274
v 0.048831 -1.107893 -0.045274
v 0.050304 -1.104336 -0.045274
v 0.045274 -1.109366 -0.045274
v 0.048831 -1.104336 0.048831
v 0.048831 1.104336 0.048831
v 0.045274 1.104336 0.050304
v 0.050304 1.104336 0.045274
v -0.048831 1.107893 0.045274
v -0.048831 1.107893 -0.045274
v -0.050304 1.104336 -0.045274
v -0.045274 1.109366 0.045274
v -0.045274 1.109366 -0.045274
v -0.045274 1.107893 0.048831
v 0.045274 1.107893 0.048831
v 0.045274 1.109366 0.045274
v 0.048831 1.107893 0.045274
v 0.048831 1.107893 -0.045274
v 0.045274 1.109366 -0.045274
v 0.050304 1.104336 -0.045274
v -0.048831 1.104336 -0.048831
v -0.048831 -1.104336 -0.048831
v -0.045274 1.104336 -0.050304
v -0.045274 -1.104336 -0.050304
v -0.045274 1.107893 -0.048831
v 0.045274 1.107893 -0.048831
v 0.045274 1.104336 -0.050304
v 0.048831 1.104336 -0.048831
v 0.048831 -1.104336 -0.048831
v 0.045274 -1.104336 -0.050304
v -0.045274 -1.107893 -0.048831
v 0.045274 -1.107893 -0.048831
v -0.048177 -1.107239 0.048177
v 0.048177 -1.107239 0.048177
v -0.048177 1.107239 0.048177
v 0.048177 1.107239 0.048177
v -0.048177 1.107239 -0.048177
v 0.048177 1.107239 -0.048177
v -0.048177 -1.107239 -0.048177
v 0.048177 -1.107239 -0.048177

# UV coordinates
vt 0.137730 0.187062
vt 0.135420 0.187062
vt 0.135420 0.127924
vt 0.137730 0.127924
vt 0.134464 0.187062
vt 0.134464 0.127924
vt 0.137730 0.190347
vt 0.137730 0.189385
vt 0.196528 0.189385
vt 0.196528 0.190347
vt 0.196528 0.187062
vt 0.800433 0.222179
vt 0.802940 0.222179
vt 0.802940 0.939246
vt 0.800433 0.939246
vt 0.627395 0.247449
vt 0.629718 0.247449
vt 0.629718 0.947706
vt 0.627395 0.947706
vt 0.199794 0.187062
vt 0.198837 0.187062
vt 0.198837 0.127924
vt 0.199794 0.127924
vt 0.196528 0.127924
vt 0.688856 0.247449
vt 0.691178 0.247449
vt 0.691178 0.947706
vt 0.688856 0.947706
vt 0.456091 0.268273
vt 0.458524 0.268273
vt 0.458524 0.959030
vt 0.456091 0.959030
vt 0.462856 0.123962
vt 0.463818 0.123962
vt 0.463818 0.185531
vt 0.462856 0.185531
vt 0.466141 0.123962
vt 0.466141 0.185531
vt 0.466141 0.121544
vt 0.525278 0.121544
vt 0.525278 0.123962
vt 0.466141 0.120542
vt 0.525278 0.120542
vt 0.527601 0.123962
vt 0.527601 0.185531
vt 0.525278 0.185531
vt 0.528563 0.123962
vt 0.528563 0.185531
vt 0.736623 0.939246
vt 0.734117 0.939246
vt 0.734117 0.222179
vt 0.736623 0.222179
vt 0.532767 0.268672
vt 0.535076 0.268672
vt 0.535076 0.969126
vt 0.532767 0.969126
vt 0.466141 0.188951
vt 0.466141 0.187950
vt 0.525278 0.187950
vt 0.525278 0.188951
vt 0.593874 0.268672
vt 0.596184 0.268672
vt 0.596184 0.969126
vt 0.593874 0.969126
vt 0.522890 0.959030
vt 0.520457 0.959030
vt 0.520457 0.268273
vt 0.522890 0.268273
vt 0.137730 0.125602
vt 0.196528 0.125602
vt 0.137730 0.124639
vt 0.196528 0.124639
vt 0.135420 0.189385
vt 0.135845 0.188958
vt 0.198413 0.188958
vt 0.198837 0.189385
vt 0.464245 0.121989
vt 0.463818 0.121544
vt 0.527601 0.121544
vt 0.527174 0.121989
vt 0.463818 0.187950
vt 0.464245 0.187505
vt 0.527601 0.187950
vt 0.527174 0.187505
vt 0.135845 0.126028
vt 0.135420 0.125602
vt 0.198837 0.125602
vt 0.198413 0.126028

# vertex normals
vn -0.015491 -0.999760 0.015492
vn -0.381658 -0.924259 0.009077
vn -0.381658 -0.924259 -0.009077
vn -0.015491 -0.999760 -0.015492
vn -0.924369 -0.381314 0.011934
vn -0.999877 -0.000654 0.015642
vn -0.999877 -0.000654 -0.015642
vn -0.924369 -0.381314 -0.011934
vn -0.015642 -0.000654 0.999877
vn -0.011934 -0.381318 0.924367
vn 0.011934 -0.381318 0.924367
vn 0.015642 -0.000654 0.999877
vn -0.009077 -0.924254 0.381670
vn 0.015491 -0.999760 0.015492
vn 0.009077 -0.924254 0.381671
vn -0.923895 -0.000334 0.382647
vn -0.923895 0.000334 0.382647
vn -0.999877 0.000654 0.015642
vn -0.382647 -0.000334 0.923895
vn -0.015642 0.000654 0.999877
vn -0.382647 0.000334 0.923895
vn 0.999877 -0.000654 0.015642
vn 0.924369 -0.381314 0.011934
vn 0.924369 -0.381314 -0.011934
vn 0.999877 -0.000654 -0.015642
vn 0.381658 -0.924259 0.009077
vn 0.015491 -0.999760 -0.015492
vn 0.381658 -0.924259 -0.009077
vn 0.382647 -0.000334 0.923895
vn 0.382647 0.000334 0.923895
vn 0.015642 0.000654 0.999877
vn 0.923895 -0.000334 0.382647
vn 0.999877 0.000654 0.015642
vn 0.923895 0.000334 0.382647
vn -0.924369 0.381314 0.011934
vn -0.924369 0.381314 -0.011934
vn -0.999877 0.000654 -0.015642
vn -0.381658 0.924259 0.009077
vn -0.015491 0.999760 0.015492
vn -0.015491 0.999760 -0.015492
vn -0.381658 0.924259 -0.009077
vn -0.009077 0.924254 0.381671
vn 0.009077 0.924254 0.381670
vn 0.015491 0.999760 0.015492
vn -0.011934 0.381318 0.924367
vn 0.011934 0.381318 0.924367
vn 0.381658 0.924259 0.009077
vn 0.381658 0.924259 -0.009077
vn 0.015491 0.999760 -0.015492
vn 0.924369 0.381314 0.011934
vn 0.999877 0.000654 -0.015642
vn 0.924369 0.381314 -0.011934
vn -0.923895 0.000334 -0.382647
vn -0.923895 -0.000334 -0.382647
vn -0.382647 0.000334 -0.923895
vn -0.015642 0.000654 -0.999877
vn -0.015642 -0.000654 -0.999877
vn -0.382647 -0.000334 -0.923895
vn -0.011934 0.381318 -0.924367
vn 0.011934 0.381318 -0.924367
vn 0.015642 0.000654 -0.999877
vn -0.009077 0.924254 -0.381670
vn 0.009077 0.924254 -0.381671
vn 0.382647 0.000334 -0.923895
vn 0.382647 -0.000334 -0.923895
vn 0.015642 -0.000654 -0.999877
vn 0.923895 0.000334 -0.382647
vn 0.923895 -0.000334 -0.382647
vn -0.009077 -0.924254 -0.381671
vn 0.009077 -0.924254 -0.381670
vn -0.011934 -0.381318 -0.924367
vn 0.011934 -0.381318 -0.924367
vn -0.887921 -0.325265 0.325269
vn -0.325282 -0.887910 0.325281
vn -0.325276 -0.325264 0.887919
vn 0.325281 -0.887907 0.325289
vn 0.887921 -0.325264 0.325269
vn 0.325275 -0.325264 0.887919
vn -0.325281 0.887907 0.325289
vn -0.887921 0.325264 0.325269
vn -0.325275 0.325264 0.887919
vn 0.887921 0.325265 0.325269
vn 0.325282 0.887910 0.325281
vn 0.325276 0.325264 0.887919
vn -0.325276 0.325264 -0.887919
vn -0.887921 0.325265 -0.325269
vn -0.325282 0.887910 -0.325281
vn 0.887921 0.325264 -0.325269
vn 0.325275 0.325264 -0.887919
vn 0.325281 0.887907 -0.325289
vn -0.325281 -0.887907 -0.325289
vn -0.887921 -0.325264 -0.325269
vn -0.325275 -0.325264 -0.887919
vn 0.887921 -0.325265 -0.325269
vn 0.325282 -0.887910 -0.325281
vn 0.325276 -0.325264 -0.887919

# Mesh
g RedPole_High
usemtl MetalPole
f 4/4/4 1/1/1 2/2/2
f 2/2/2 3/3/3 4/4/4
f 3/3/8 2/2/5 5/5/6
f 5/5/6 6/6/7 3/3/8
f 10/10/12 7/7/9 8/8/10
f 8/8/10 9/9/11 10/10/12
f 9/9/15 8/8/13 1/1/1
f 1/1/1 11/11/14 9/9/15
f 14/15/18 5/12/6 12/13/16
f 12/13/16 13/14/17 14/15/18
f 13/19/21 12/16/19 7/17/9
f 7/17/9 15/18/20 13/19/21
f 19/23/25 16/20/22 17/21/23
f 17/21/23 18/22/24 19/23/25
f 18/22/28 17/21/26 11/11/14
f 11/11/14 20/24/27 18/22/28
f 23/28/31 10/25/12 21/26/29
f 21/26/29 22/27/30 23/28/31
f 22/32/34 21/29/32 16/30/22
f 16/30/22 24/31/33 22/32/34
f 27/36/37 14/33/18 25/34/35
f 25/34/35 26/35/36 27/36/37
f 26/35/41 25/34/38 28/37/39
f 28/37/39 29/38/40 26/35/41
f 32/41/44 28/37/39 30/39/42
f 30/39/42 31/40/43 32/41/44
f 31/40/46 30/39/45 15/42/20
f 15/42/20 23/43/31 31/40/46
f 35/46/49 32/41/44 33/44/47
f 33/44/47 34/45/48 35/46/49
f 34/45/52 33/44/50 24/47/33
f 24/47/33 36/48/51 34/45/52
f 6/52/7 27/49/37 37/50/53
f 37/50/53 38/51/54 6/52/7
f 38/56/58 37/53/55 39/54/56
f 39/54/56 40/55/57 38/56/58
f 43/60/61 39/57/56 41/58/59
f 41/58/59 42/59/60 43/60/61
f 42/59/63 41/58/62 29/38/40
f 29/38/40 35/46/49 42/59/63
f 46/64/66 43/61/61 44/62/64
f 44/62/64 45/63/65 46/64/66
f 45/68/68 44/65/67 36/66/51
f 36/66/51 19/67/25 45/68/68
f 20/24/27 4/4/4 47/69/69
f 47/69/69 48/70/70 20/24/27
f 48/70/72 47/69/71 40/71/57
f 40/71/57 46/72/66 48/70/72
f 15/18/20 7/17/9 10/25/12
f 10/25/12 23/28/31 15/18/20
f 29/38/40 28/37/39 32/41/44
f 32/41/44 35/46/49 29/38/40
f 40/55/57 39/54/56 43/61/61
f 43/61/61 46/64/66 40/55/57
f 1/1/1 4/4/4 20/24/27
f 20/24/27 11/11/14 1/1/1
f 24/31/33 16/30/22 19/67/25
f 19/67/25 36/66/51 24/31/33
f 27/49/37 6/52/7 5/12/6
f 5/12/6 14/15/18 27/49/37
f 49/74/73 12/73/16 5/5/6
f 5/5/6 2/2/5 49/74/73
f 49/74/74 2/2/2 1/1/1
f 1/1/1 8/8/13 49/74/74
f 49/74/75 8/8/10 7/7/9
f 7/7/9 12/73/19 49/74/75
f 50/75/76 9/9/15 11/11/14
f 11/11/14 17/21/26 50/75/76
f 50/75/77 17/21/23 16/20/22
f 16/20/22 21/76/32 50/75/77
f 50/75/78 21/76/29 10/10/12
f 10/10/12 9/9/11 50/75/78
f 51/77/79 30/39/42 28/37/39
f 28/37/39 25/34/38 51/77/79
f 51/77/80 25/34/35 14/33/18
f 14/33/18 13/78/17 51/77/80
f 51/77/81 13/78/21 15/42/20
f 15/42/20 30/39/45 51/77/81
f 52/80/82 22/79/34 24/47/33
f 24/47/33 33/44/50 52/80/82
f 52/80/83 33/44/47 32/41/44
f 32/41/44 31/40/43 52/80/83
f 52/80/84 31/40/46 23/43/31
f 23/43/31 22/79/30 52/80/84
f 53/82/85 41/58/59 39/57/56
f 39/57/56 37/81/55 53/82/85
f 53/82/86 37/81/53 27/36/37
f 27/36/37 26/35/36 53/82/86
f 53/82/87 26/35/41 29/38/40
f 29/38/40 41/58/62 53/82/87
f 54/84/88 34/45/52 36/48/51
f 36/48/51 44/83/67 54/84/88
f 54/84/89 44/83/64 43/60/61
f 43/60/61 42/59/60 54/84/89
f 54/84/90 42/59/63 35/46/49
f 35/46/49 34/45/48 54/84/90
f 55/85/91 47/69/69 4/4/4
f 4/4/4 3/3/3 55/85/91
f 55/85/92 3/3/8 6/6/7
f 6/6/7 38/86/54 55/85/92
f 55/85/93 38/86/58 40/71/57
f 40/71/57 47/69/71 55/85/93
f 56/88/94 45/87/68 19/23/25
f 19/23/25 18/22/24 56/88/94
f 56/88/95 18/22/28 20/24/27
f 20/24/27 48/70/70 56/88/95
f 56/88/96 48/70/72 46/72/66
f 46/72/66 45/87/65 56/88/96
